<svg xmlns="http://www.w3.org/2000/svg" xmlns:xlink="http://www.w3.org/1999/xlink" viewBox="0,0,256,256" width="16px" height="16px" fill-rule="nonzero"><g fill="#ffffff" fill-rule="nonzero" stroke="none" stroke-width="1" stroke-linecap="butt" stroke-linejoin="miter" stroke-miterlimit="10" stroke-dasharray="" stroke-dashoffset="0" font-family="none" font-weight="none" font-size="none" text-anchor="none" style="mix-blend-mode: normal"><g transform="scale(8,8)"><path d="M16,3c-3.78906,0 -7.23437,1.11328 -9.78125,2.97656c-2.55078,1.85938 -4.21875,4.53125 -4.21875,7.52344c0,3.62891 2.47266,6.69922 6,8.55078v6.94922l6.74609,-5.0625c0.41016,0.03125 0.82422,0.0625 1.25391,0.0625c3.78906,0 7.23438,-1.11328 9.78125,-2.97266c2.55078,-1.86328 4.21875,-4.53516 4.21875,-7.52734c0,-2.99219 -1.66797,-5.66406 -4.21875,-7.52344c-2.54687,-1.86328 -5.99219,-2.97656 -9.78125,-2.97656zM16,5c3.39063,0 6.44531,1.01563 8.60156,2.58984c2.15625,1.57422 3.39844,3.65625 3.39844,5.91016c0,2.25391 -1.24219,4.33594 -3.39844,5.91016c-2.15625,1.57422 -5.21094,2.58984 -8.60156,2.58984c-0.49219,0 -0.98437,-0.02734 -1.47656,-0.07422l-0.38281,-0.03125l-4.14062,3.10547v-4.14062l-0.57812,-0.26562c-3.35156,-1.57422 -5.42187,-4.20703 -5.42187,-7.09375c0,-2.25391 1.24219,-4.33594 3.39844,-5.91016c2.15625,-1.57422 5.21094,-2.58984 8.60156,-2.58984z"></path></g></g></svg>