<svg xmlns="http://www.w3.org/2000/svg" width="287" height="38.498" viewBox="0 0 287 38.498">
  <g id="townlink-header-logo" transform="translate(-46.233 -47.667)">
    <path id="Path_1" data-name="Path 1" d="M46.233,48.078v6.93H76.174v-6.93Zm10.6,37.671h8.74V55.009L56.834,62.9ZM115.28,59.326a18.114,18.114,0,0,0-3.968-6.1,18.438,18.438,0,0,0-6.166-4.075,20.807,20.807,0,0,0-8-1.485A21.03,21.03,0,0,0,89.13,49.14,18.428,18.428,0,0,0,82.936,53.2a18.055,18.055,0,0,0-3.984,6.1,21.227,21.227,0,0,0,0,15.2A18,18,0,0,0,89.13,84.691a22.5,22.5,0,0,0,16.015,0A17.971,17.971,0,0,0,115.28,74.5a21.115,21.115,0,0,0,0-15.176Zm-8.259,12.63a10.633,10.633,0,0,1-2.084,3.788,8.853,8.853,0,0,1-3.322,2.366,11.56,11.56,0,0,1-4.47.815,11.724,11.724,0,0,1-4.513-.815,8.85,8.85,0,0,1-3.338-2.366,10.626,10.626,0,0,1-2.08-3.788,17.9,17.9,0,0,1,0-10.084,10.65,10.65,0,0,1,2.08-3.788,8.956,8.956,0,0,1,3.338-2.378,11.578,11.578,0,0,1,4.513-.827,11.417,11.417,0,0,1,4.47.827,8.96,8.96,0,0,1,3.322,2.378,10.657,10.657,0,0,1,2.084,3.788,17.886,17.886,0,0,1,0,10.084ZM165.3,48.078a3.077,3.077,0,0,0-1.861.568,2.456,2.456,0,0,0-.983,1.32l-5.171,19.651c-.153.6-.306,1.246-.451,1.927s-.289,1.406-.427,2.182a27.2,27.2,0,0,0-1.14-4.109l-6.049-19.651a3.4,3.4,0,0,0-1.062-1.359,2.949,2.949,0,0,0-1.833-.529h-2.585a2.959,2.959,0,0,0-1.849.584,2.691,2.691,0,0,0-1,1.3l-6.1,19.651a29.517,29.517,0,0,0-1.136,4.317c-.157-.792-.31-1.556-.466-2.288s-.31-1.41-.466-2.029L127.55,49.966a2.361,2.361,0,0,0-1-1.371,3.311,3.311,0,0,0-1.9-.517h-7.342l11.635,37.671h7.909L144.046,62.4c.137-.364.266-.763.388-1.2s.243-.9.361-1.383c.121.482.242.94.364,1.383s.251.838.388,1.2l7.082,23.345h7.913l11.635-37.671Zm35.811,0V68.014c0,.6.016,1.246.051,1.924s.094,1.387.18,2.108L183.426,49.422a7.529,7.529,0,0,0-.646-.7,2.346,2.346,0,0,0-.6-.4,2.5,2.5,0,0,0-.7-.2,8.175,8.175,0,0,0-.96-.051h-4.6V85.749h7.7V65.558c0-.552-.012-1.144-.035-1.77s-.075-1.281-.145-1.955L201.211,84.3a4.182,4.182,0,0,0,1.36,1.124,3.95,3.95,0,0,0,1.692.321h4.552V48.078Zm23.736,30.69V48.078h-8.74V85.749h22.7V78.768Zm18.409-30.69V85.749h8.791V48.078Zm41.263,0V68.014c0,.6.02,1.246.055,1.924s.094,1.387.18,2.108L266.835,49.422a7.524,7.524,0,0,0-.646-.7,2.346,2.346,0,0,0-.6-.4,2.508,2.508,0,0,0-.7-.2,8.151,8.151,0,0,0-.956-.051h-4.6V85.749h7.706V65.558c0-.552-.016-1.144-.039-1.77s-.075-1.281-.142-1.955L284.625,84.3a4.17,4.17,0,0,0,1.355,1.124,3.965,3.965,0,0,0,1.692.321h4.552V48.078Zm37.339,20.2a7.631,7.631,0,0,0-1.5-1.681,6.328,6.328,0,0,0-1.786-1.011,7.594,7.594,0,0,0,2.562-2.273L332.3,48.078h-7.6a5.445,5.445,0,0,0-2.163.376,4.2,4.2,0,0,0-1.614,1.356l-8.482,12.309a3.168,3.168,0,0,1-2.793,1.215h-1.394V48.078h-8.74V85.749h8.74V69.719h2.119a5.152,5.152,0,0,1,1.927.3,2.585,2.585,0,0,1,1.175,1.023l8.533,13.108a4.7,4.7,0,0,0,.544.686,2.555,2.555,0,0,0,.67.5,3.327,3.327,0,0,0,.921.31,6.666,6.666,0,0,0,1.277.1h7.811Z" transform="translate(0)" fill="#fff"/>
  </g>
</svg>
