<?xml version="1.0" standalone="no"?>
<!DOCTYPE svg PUBLIC "-//W3C//DTD SVG 20010904//EN"
 "http://www.w3.org/TR/2001/REC-SVG-20010904/DTD/svg10.dtd">
<svg version="1.0" xmlns="http://www.w3.org/2000/svg"
 width="640.000000pt" height="427.000000pt" viewBox="0 0 640.000000 427.000000"
 preserveAspectRatio="xMidYMid meet">

<g transform="translate(0.000000,427.000000) scale(0.100000,-0.100000)"
fill="#000000" stroke="none">
<path d="M0 2135 l0 -2135 1085 0 c621 0 1085 4 1085 9 0 5 -9 11 -20 14 -18
5 -20 14 -21 84 -4 217 0 249 41 322 20 38 61 103 91 145 69 98 64 88 88 176
54 200 48 187 96 210 25 12 54 35 66 51 12 17 26 28 33 26 11 -4 23 42 66 243
11 52 29 124 40 161 11 36 20 82 20 101 0 20 7 52 16 73 8 21 12 45 9 53 -3 9
-3 13 1 9 11 -10 43 62 44 97 0 30 24 76 73 139 16 21 27 41 23 44 -3 4 -6 1
-6 -6 0 -7 -5 -9 -12 -5 -7 4 -10 4 -6 0 7 -9 -22 -46 -35 -46 -5 0 -3 8 4 17
12 15 12 16 -3 11 -15 -6 -16 2 -11 86 6 92 6 92 -22 115 l-29 22 23 15 c15
11 21 25 20 42 -4 51 0 62 24 62 21 1 21 1 -6 21 -27 20 -27 22 -12 46 14 21
15 30 4 54 -14 35 -5 50 15 23 22 -29 32 -7 12 26 -12 21 -14 35 -8 46 5 9 7
25 5 35 -9 32 7 109 22 109 14 0 25 21 25 52 0 16 5 19 25 16 19 -4 25 -1 25
11 0 10 5 22 12 29 9 9 8 12 -5 12 -10 0 -17 -8 -17 -20 0 -24 -15 -26 -24 -3
-4 10 -1 20 9 25 8 5 15 17 15 28 0 12 6 17 18 14 21 -6 42 35 42 83 0 18 5
33 10 33 6 0 10 -6 10 -12 0 -9 4 -8 10 2 5 8 10 32 10 53 0 20 4 37 8 37 10
0 37 71 33 89 -4 21 59 72 83 66 12 -3 15 -2 9 1 -7 3 -13 23 -13 44 0 30 4
40 21 45 11 4 23 4 26 1 11 -11 33 16 33 40 0 12 5 26 11 30 7 4 10 -5 8 -27
-3 -42 19 -139 32 -139 6 0 5 8 -1 19 -12 24 -29 171 -19 171 10 0 17 38 24
130 7 84 22 147 42 171 7 8 18 31 25 50 6 19 34 70 61 114 28 44 59 101 69
127 26 68 85 119 163 139 97 25 317 37 527 30 9 -1 30 -12 46 -26 19 -16 53
-29 89 -36 32 -6 72 -19 88 -29 17 -10 47 -21 68 -25 41 -8 117 -58 117 -78 0
-6 23 -27 51 -45 27 -18 54 -43 59 -56 8 -22 30 -45 30 -31 0 8 -24 49 -32 55
-4 3 -5 16 -1 28 5 19 8 20 21 10 13 -11 15 -10 9 4 -8 21 10 35 26 19 8 -8 8
-14 -1 -23 -18 -18 -15 -23 18 -25 37 -3 49 14 18 26 -22 9 -22 10 5 10 53 2
90 -33 45 -42 -22 -3 -22 -4 -4 -12 13 -6 21 -5 24 3 2 7 15 12 29 12 16 0 27
7 30 20 7 26 9 25 38 -7 22 -27 24 -27 42 -10 19 16 21 16 44 -9 19 -20 30
-24 52 -20 20 4 37 0 54 -14 14 -11 39 -20 55 -20 22 0 28 -4 26 -17 -2 -14 9
-20 62 -29 36 -6 54 -12 41 -13 l-25 -1 22 -20 c15 -14 29 -18 51 -14 19 4 36
1 45 -7 40 -37 48 -41 72 -35 33 9 31 -10 -3 -22 l-28 -10 38 -16 c25 -11 37
-22 34 -31 -9 -22 5 -26 31 -9 14 9 34 13 48 10 20 -5 24 -12 24 -46 0 -22 5
-40 10 -40 6 0 10 6 10 13 1 6 12 -1 25 -18 24 -29 25 -29 39 -10 14 18 15 19
16 2 0 -10 13 -26 30 -35 34 -19 38 -32 13 -33 -13 0 -11 -3 6 -10 18 -7 27
-6 32 3 5 8 11 -3 15 -30 4 -23 12 -42 18 -42 23 0 79 -63 110 -123 14 -27 22
-34 31 -27 20 17 38 -14 30 -51 -8 -36 7 -51 42 -42 21 5 23 2 23 -36 0 -23
-4 -41 -10 -41 -5 0 -7 -7 -3 -16 6 -16 7 -16 18 0 15 20 35 21 35 1 0 -9 6
-12 18 -8 14 5 15 3 5 -8 -19 -19 -16 -37 7 -44 16 -5 20 -15 20 -46 0 -21 5
-39 10 -39 6 0 8 -11 4 -25 -4 -18 -2 -25 9 -25 15 0 41 -74 36 -101 -6 -27
24 -89 43 -89 14 0 18 -8 18 -40 0 -22 -4 -40 -10 -40 -12 0 -12 -87 0 -115 6
-14 9 -15 10 -5 0 12 4 11 15 -4 19 -25 19 -36 0 -36 -20 0 -19 -16 1 -24 8
-3 12 -11 9 -16 -4 -6 -1 -17 5 -25 10 -12 9 -15 -9 -15 -11 0 -21 -6 -21 -14
0 -9 7 -12 19 -9 16 4 22 -3 31 -37 6 -23 9 -56 7 -73 -3 -27 -4 -25 -5 11 -2
35 -5 42 -22 42 -17 0 -20 -7 -20 -40 0 -27 4 -40 14 -40 9 0 15 -19 19 -62 5
-52 2 -65 -16 -89 -20 -28 -20 -29 -2 -49 18 -19 18 -20 -3 -20 -18 0 -22 -6
-21 -27 1 -17 3 -21 6 -10 2 9 9 17 14 17 15 0 10 -36 -6 -50 -9 -8 -13 -21
-9 -32 3 -11 3 -45 -1 -76 -7 -53 -8 -55 -22 -37 -14 20 -14 20 -29 1 -17 -24
-18 -43 -1 -49 9 -3 6 -16 -11 -47 -12 -24 -20 -46 -17 -48 3 -3 5 0 5 6 0 7
10 12 23 12 l22 -1 -24 -19 c-18 -16 -22 -26 -17 -50 3 -17 1 -30 -4 -30 -6 0
-10 12 -10 27 0 26 0 26 -20 8 -16 -14 -21 -30 -20 -64 1 -25 -4 -68 -10 -94
-10 -39 -15 -47 -28 -42 -34 14 -47 11 -45 -12 2 -15 -3 -23 -13 -23 -21 0
-47 -27 -34 -35 5 -3 10 -1 10 4 0 17 47 13 54 -5 9 -23 9 -23 -26 -32 -17 -4
-34 -14 -38 -22 -4 -8 -12 -25 -18 -37 -7 -13 -12 -30 -12 -38 0 -25 -30 -17
-31 8 0 15 -2 17 -6 7 -3 -8 -11 -18 -17 -22 -8 -5 -7 -8 2 -8 6 0 12 -7 12
-15 0 -8 -7 -15 -15 -15 -8 0 -15 8 -15 17 0 9 -2 14 -5 12 -11 -11 8 -78 24
-82 9 -3 3 -5 -12 -6 -16 -1 -30 5 -33 14 -9 21 -24 19 -24 -5 0 -30 -22 -72
-52 -103 -15 -15 -28 -35 -28 -45 -1 -15 -2 -15 -16 3 -15 19 -16 20 -29 1 -8
-11 -20 -16 -30 -12 -10 4 -14 2 -9 -5 4 -6 0 -15 -7 -20 -7 -4 -10 -11 -6
-16 5 -4 12 -1 17 7 5 8 12 12 15 8 14 -14 -20 -45 -60 -56 -34 -9 -44 -17
-49 -38 -7 -25 -8 -26 -24 -10 -15 15 -17 14 -32 -16 -12 -26 -28 -38 -78 -57
-49 -20 -61 -28 -57 -42 7 -21 -3 -28 -44 -31 -18 -1 -35 -6 -37 -10 -3 -4
-11 -8 -17 -8 -7 0 -6 4 3 11 13 9 13 10 0 6 -24 -6 -24 -35 0 -42 16 -5 19
-10 10 -20 -9 -11 -16 -10 -36 7 -26 23 -33 73 -11 81 10 4 10 6 0 6 -7 1 -13
9 -14 19 0 16 -1 16 -8 -1 -11 -30 2 -112 18 -112 8 0 16 -6 19 -14 3 -9 0
-11 -8 -6 -9 6 -9 3 -1 -14 7 -11 20 -21 31 -21 10 0 22 -5 26 -11 3 -6 20
-19 37 -30 31 -18 32 -18 57 4 l25 22 -22 -25 c-17 -19 -19 -29 -12 -43 6 -10
13 -56 16 -103 l6 -84 -33 30 c-17 16 -36 27 -41 24 -5 -3 -9 0 -9 6 0 6 -4 8
-10 5 -5 -3 -18 -1 -27 5 -17 11 -17 11 0 6 9 -3 17 -1 17 3 0 17 -25 18 -52
4 -24 -12 -28 -11 -28 1 0 7 -7 19 -16 27 -13 10 -17 10 -24 0 -6 -10 -10 -9
-18 5 -10 17 -11 18 -17 2 -8 -20 2 -41 15 -33 5 3 9 -3 8 -12 0 -16 7 -37 51
-146 6 -17 7 -26 1 -22 -13 8 -13 -11 1 -37 6 -11 9 -22 6 -24 -3 -3 -28 30
-57 73 -28 42 -60 83 -71 91 -11 7 -17 18 -14 23 4 5 -1 9 -9 9 -9 0 -16 5
-16 10 0 6 -7 10 -15 10 -7 0 -18 6 -22 14 -4 8 -34 23 -65 34 -57 20 -58 20
-48 1 31 -57 76 -112 135 -164 47 -41 63 -61 56 -68 -14 -14 -14 -27 -1 -27 6
0 9 5 8 11 -6 23 21 19 38 -5 l16 -26 604 0 604 0 0 2135 0 2135 -3200 0
-3200 0 0 -2135z m4475 1865 c-3 -5 -12 -10 -18 -10 -7 0 -6 4 3 10 19 12 23
12 15 0z m75 -65 c4 3 6 -5 2 -17 -4 -15 -2 -19 8 -13 13 8 30 -10 30 -33 0
-22 -39 10 -50 42 -10 29 -13 52 -3 28 2 -6 8 -10 13 -7z m77 -79 c0 -8 -6
-12 -14 -9 -7 3 -13 9 -13 14 0 5 6 9 13 9 8 0 14 -6 14 -14z m593 -100 c0 -3
-4 -8 -10 -11 -5 -3 -10 -1 -10 4 0 6 5 11 10 11 6 0 10 -2 10 -4z m100 -56
c0 -5 -2 -10 -4 -10 -3 0 -8 5 -11 10 -3 6 -1 10 4 10 6 0 11 -4 11 -10z
m-2103 -262 c2 -17 0 -19 -7 -8 -5 8 -6 18 -4 22 8 12 10 10 11 -14z m2783
-358 c0 -5 -5 -10 -11 -10 -5 0 -7 5 -4 10 3 6 8 10 11 10 2 0 4 -4 4 -10z
m-3040 -132 c0 -16 -3 -19 -11 -11 -6 6 -8 16 -5 22 11 17 16 13 16 -11z
m3292 -488 c3 -16 1 -30 -4 -30 -4 0 -8 14 -8 30 0 17 2 30 4 30 2 0 6 -13 8
-30z m-3522 -390 c0 -22 -2 -40 -4 -40 -2 0 -6 18 -8 40 -2 22 0 40 4 40 5 0
8 -18 8 -40z m10 -106 c7 -17 7 -31 0 -42 -9 -14 -10 -13 -4 7 4 16 3 21 -5
17 -7 -5 -11 2 -11 18 0 33 8 33 20 0z m23 -74 c3 -11 0 -18 -6 -17 -10 2 -12
-2 -16 -35 -1 -9 -4 -9 -11 2 -6 10 -4 20 6 31 7 8 14 21 14 27 0 19 7 14 13
-8z m3547 -24 c0 -3 -4 -8 -10 -11 -5 -3 -10 -1 -10 4 0 6 5 11 10 11 6 0 10
-2 10 -4z m-33 -68 c-3 -8 -6 -5 -6 6 -1 11 2 17 5 13 3 -3 4 -12 1 -19z
m-3550 -20 c-3 -7 -5 -2 -5 12 0 14 2 19 5 13 2 -7 2 -19 0 -25z m3353 -533
c0 -8 -4 -15 -10 -15 -5 0 -10 7 -10 15 0 8 5 15 10 15 6 0 10 -7 10 -15z
m-225 -294 c3 -5 1 -12 -5 -16 -5 -3 -10 1 -10 9 0 18 6 21 15 7z m-495 -455
c0 -2 -7 -7 -16 -10 -8 -3 -12 -2 -9 4 6 10 25 14 25 6z m-47 -33 c-7 -2 -19
-2 -25 0 -7 3 -2 5 12 5 14 0 19 -2 13 -5z"/>
<path d="M3976 3938 c10 -14 21 -24 23 -22 3 3 -6 15 -18 27 l-24 22 19 -27z"/>
<path d="M3846 3922 c-2 -4 -1 -14 5 -22 7 -12 9 -10 9 8 0 23 -5 28 -14 14z"/>
<path d="M4020 3926 c0 -2 7 -9 15 -16 9 -7 15 -8 15 -2 0 5 -7 12 -15 16 -8
3 -15 4 -15 2z"/>
<path d="M3625 3888 c-4 -18 -2 -44 3 -58 8 -21 10 -17 13 33 4 62 -6 78 -16
25z"/>
<path d="M3670 3910 c-9 -6 -10 -10 -3 -10 6 0 15 5 18 10 8 12 4 12 -15 0z"/>
<path d="M3465 3890 c-3 -5 -3 -10 0 -10 5 0 -3 -12 -32 -45 -18 -19 -16 -28
3 -21 14 5 15 4 5 -8 -14 -16 1 -56 20 -56 6 0 7 -5 3 -11 -4 -8 0 -8 15 0 26
14 26 12 0 60 -19 37 -19 41 -4 64 10 15 12 28 6 31 -5 4 -12 2 -16 -4z"/>
<path d="M3990 3884 c0 -8 5 -12 10 -9 6 3 10 10 10 16 0 5 -4 9 -10 9 -5 0
-10 -7 -10 -16z"/>
<path d="M4046 3870 c-8 -16 -10 -30 -5 -30 5 0 7 -11 5 -25 -3 -14 0 -25 5
-25 7 0 14 53 7 63 -1 1 4 12 11 25 6 12 8 22 2 22 -5 0 -16 -13 -25 -30z"/>
<path d="M3515 3870 c6 -19 4 -22 -10 -16 -15 5 -16 4 -5 -9 7 -9 19 -14 26
-11 8 3 13 2 12 -2 -2 -11 13 -42 22 -42 24 0 -7 75 -39 94 -10 7 -12 3 -6
-14z"/>
<path d="M3711 3874 c0 -11 3 -14 6 -6 3 7 2 16 -1 19 -3 4 -6 -2 -5 -13z"/>
<path d="M3663 3853 c1 -18 5 -33 10 -33 10 0 9 32 -3 50 -7 11 -9 6 -7 -17z"/>
<path d="M3586 3852 c-3 -5 1 -9 9 -9 8 0 12 4 9 9 -3 4 -7 8 -9 8 -2 0 -6 -4
-9 -8z"/>
<path d="M3980 3835 c0 -8 2 -15 4 -15 2 0 6 7 10 15 3 8 1 15 -4 15 -6 0 -10
-7 -10 -15z"/>
<path d="M3371 3780 c-18 -32 -22 -52 -18 -86 2 -24 1 -41 -3 -39 -5 3 -11 -1
-13 -7 -3 -7 -6 1 -7 17 -1 29 -2 29 -12 7 -9 -19 -7 -28 12 -55 l24 -32 -29
23 -29 23 -17 -47 c-13 -33 -15 -52 -9 -65 13 -23 13 -32 0 -24 -7 4 -9 -2 -4
-19 4 -16 1 -32 -6 -41 -18 -22 -8 -26 27 -13 31 12 44 38 60 123 2 10 11 30
19 43 9 13 14 32 11 42 -3 11 0 17 7 14 6 -2 22 13 36 34 33 49 37 60 15 42
-17 -14 -18 -13 -13 8 4 13 1 28 -7 36 -7 7 -15 23 -17 36 -3 20 -6 18 -27
-20z m-85 -247 c-11 -11 -17 4 -9 23 7 18 8 18 11 1 2 -10 1 -21 -2 -24z"/>
<path d="M4677 3807 c-4 -10 -2 -17 3 -17 6 0 11 -10 11 -22 1 -14 3 -17 6 -7
2 8 0 26 -5 39 -7 19 -10 20 -15 7z"/>
<path d="M3510 3805 c0 -5 5 -17 10 -25 5 -8 10 -10 10 -5 0 6 -5 17 -10 25
-5 8 -10 11 -10 5z"/>
<path d="M5028 3770 c25 -24 32 -25 32 -6 0 8 -7 17 -16 20 -31 12 -38 6 -16
-14z"/>
<path d="M3506 3730 c-47 -36 -57 -46 -31 -32 23 13 83 61 75 61 -3 0 -22 -13
-44 -29z"/>
<path d="M4140 3751 c0 -5 -8 -12 -17 -14 -15 -4 -15 -5 -2 -6 9 0 22 6 29 14
9 10 9 15 1 15 -6 0 -11 -4 -11 -9z"/>
<path d="M4163 3735 c-20 -22 -15 -30 5 -12 10 10 22 14 27 10 4 -5 5 -2 1 5
-9 15 -18 15 -33 -3z"/>
<path d="M5100 3740 c0 -5 5 -10 10 -10 6 0 10 5 10 10 0 6 -4 10 -10 10 -5 0
-10 -4 -10 -10z"/>
<path d="M4672 3730 c0 -8 4 -26 8 -40 6 -20 8 -21 8 -5 0 11 -3 29 -8 40 -5
12 -8 14 -8 5z"/>
<path d="M4250 3686 c0 -2 7 -7 16 -10 8 -3 12 -2 9 4 -6 10 -25 14 -25 6z"/>
<path d="M3427 3650 c-15 -16 -25 -30 -22 -30 2 0 -7 -22 -21 -49 -13 -28 -31
-68 -39 -91 -14 -38 -13 -41 3 -38 10 2 18 14 20 31 2 17 8 25 14 21 7 -4 8
-2 4 4 -9 14 26 113 54 152 27 38 21 39 -13 0z"/>
<path d="M4692 3630 c0 -19 2 -27 5 -17 2 9 2 25 0 35 -3 9 -5 1 -5 -18z"/>
<path d="M4156 3595 c21 -27 43 -52 47 -54 15 -6 49 -46 64 -76 l16 -30 -22
19 c-11 11 -21 14 -21 8 0 -6 5 -14 10 -17 6 -4 8 -10 5 -15 -4 -7 30 -23 46
-21 4 0 5 -8 2 -18 -4 -16 -10 -18 -34 -11 -36 10 -38 -2 -4 -20 17 -9 30 -30
42 -67 9 -29 19 -50 22 -48 2 3 10 -8 17 -25 11 -26 17 -30 39 -24 14 3 32 3
42 0 15 -6 14 -8 -2 -20 -19 -14 -13 -36 9 -36 8 0 19 -7 26 -15 8 -10 21 -13
33 -9 18 6 19 3 12 -51 l-7 -58 33 7 c37 7 50 17 32 23 -21 8 -15 43 10 52 20
8 20 9 -12 16 -51 11 -84 47 -38 42 21 -2 22 2 22 61 0 50 -2 61 -13 57 -11
-4 -10 1 3 21 l17 27 -36 -7 c-28 -5 -38 -3 -42 9 -9 21 5 33 16 15 5 -8 12
-11 16 -8 3 4 -1 14 -10 23 -21 21 -20 23 8 18 15 -3 25 1 29 11 5 13 3 15
-11 8 -9 -5 -22 -8 -28 -5 -6 2 -16 -3 -23 -11 -10 -12 -17 -11 -51 5 -21 10
-42 23 -45 29 -12 19 -26 10 -19 -12 6 -19 2 -18 -20 8 -14 18 -26 35 -26 38
0 11 -20 34 -109 125 -58 59 -72 71 -45 36z m234 -270 c0 -5 -5 -3 -10 5 -5 8
-10 20 -10 25 0 6 5 3 10 -5 5 -8 10 -19 10 -25z m54 -90 c21 -42 36 -79 32
-82 -3 -4 -6 1 -6 10 0 8 -3 17 -7 19 -11 4 -72 128 -64 128 3 0 23 -34 45
-75z"/>
<path d="M4300 3610 c-9 -6 -10 -10 -3 -10 6 0 15 5 18 10 8 12 4 12 -15 0z"/>
<path d="M4228 3583 c7 -3 16 -2 19 1 4 3 -2 6 -13 5 -11 0 -14 -3 -6 -6z"/>
<path d="M4293 3573 c0 -9 4 -10 14 -2 7 6 13 12 13 14 0 1 -6 2 -13 2 -8 0
-14 -6 -14 -14z"/>
<path d="M4240 3562 c0 -5 15 -26 33 -48 18 -21 40 -51 49 -65 17 -27 32 -32
136 -45 33 -4 52 -3 52 4 0 6 -14 8 -32 6 -25 -4 -29 -2 -18 6 13 9 13 12 -4
25 -11 8 -16 21 -12 30 4 11 2 14 -7 8 -19 -12 -36 -12 -44 -1 -3 6 -2 8 3 5
6 -3 16 -2 24 4 11 6 9 9 -11 9 -15 0 -32 7 -40 16 -7 9 -21 13 -34 10 -13 -3
-35 4 -58 20 -20 13 -37 21 -37 16z m110 -63 c0 -5 -4 -9 -10 -9 -5 0 -10 7
-10 16 0 8 5 12 10 9 6 -3 10 -10 10 -16z m9 -38 c7 -5 12 -13 10 -18 -2 -5
-12 -1 -21 9 -19 19 -13 24 11 9z"/>
<path d="M4350 3562 c0 -4 9 -13 20 -19 16 -11 18 -10 14 1 -6 15 -34 30 -34
18z"/>
<path d="M4500 3551 c0 -5 7 -11 15 -15 8 -3 15 -1 15 3 0 5 -7 11 -15 15 -8
3 -15 1 -15 -3z"/>
<path d="M3885 3510 c-28 -4 -68 -17 -90 -29 -22 -12 -31 -19 -20 -16 67 21
149 35 210 35 49 0 65 3 55 10 -17 11 -81 11 -155 0z"/>
<path d="M3410 3470 l-25 -20 53 6 c29 4 93 1 143 -6 49 -7 92 -11 95 -8 13
14 -71 38 -151 43 -81 5 -92 4 -115 -15z"/>
<path d="M3898 3473 c7 -3 16 -2 19 1 4 3 -2 6 -13 5 -11 0 -14 -3 -6 -6z"/>
<path d="M4090 3473 c8 -3 21 -10 28 -16 9 -7 11 -6 6 7 -3 9 -16 16 -28 15
-14 0 -16 -2 -6 -6z"/>
<path d="M3813 3455 c-18 -8 -33 -16 -33 -19 0 -4 10 -3 55 7 6 2 19 8 30 15
l20 11 -20 0 c-11 0 -35 -6 -52 -14z"/>
<path d="M3390 3421 c-14 -4 -26 -15 -28 -25 -4 -17 -1 -17 29 4 19 13 36 25
38 27 6 4 -10 2 -39 -6z"/>
<path d="M3548 3423 c6 -2 18 -2 25 0 6 3 1 5 -13 5 -14 0 -19 -2 -12 -5z"/>
<path d="M3303 3400 c-16 -7 -21 -14 -16 -26 4 -11 2 -15 -4 -11 -7 5 -9 0 -6
-13 3 -11 0 -20 -6 -20 -7 0 0 -17 14 -37 30 -45 33 -65 5 -32 l-20 24 6 -30
c4 -16 12 -33 17 -36 5 -4 7 -16 4 -28 -3 -12 -1 -21 4 -21 4 0 6 -7 3 -15 -4
-11 -2 -13 9 -9 10 3 17 -1 20 -13 3 -10 4 34 3 97 0 63 3 130 7 148 9 35 2
39 -40 22z"/>
<path d="M5680 3400 c0 -5 5 -10 10 -10 6 0 10 5 10 10 0 6 -4 10 -10 10 -5 0
-10 -4 -10 -10z"/>
<path d="M3839 3384 c-6 -8 -18 -14 -25 -14 -9 0 -14 -12 -14 -36 0 -21 4 -33
10 -29 6 3 10 -3 10 -14 0 -12 7 -21 15 -21 8 0 15 -4 15 -8 0 -10 59 -3 75 7
6 4 43 18 83 31 39 14 72 27 72 30 0 4 -21 17 -46 29 -35 18 -57 22 -95 19
-26 -3 -46 -2 -44 2 9 14 -45 17 -56 4z"/>
<path d="M3666 3382 c-7 -11 6 -27 23 -27 8 0 30 -29 49 -65 22 -42 31 -54 27
-35 -3 17 -17 47 -30 67 -14 20 -22 44 -19 53 5 11 0 15 -19 15 -14 0 -28 -4
-31 -8z"/>
<path d="M3462 3354 c-47 -19 -61 -36 -55 -67 6 -29 44 -43 96 -33 15 2 27 2
27 -2 0 -9 52 -33 58 -27 3 3 0 5 -6 5 -17 0 -15 21 3 34 8 6 18 26 21 43 6
29 3 34 -22 44 -45 17 -86 18 -122 3z m34 -54 c0 -14 -7 -20 -23 -20 -27 0
-30 15 -5 29 24 15 28 14 28 -9z"/>
<path d="M3636 3323 c-3 -8 -1 -11 4 -8 6 3 10 -1 10 -10 0 -9 -4 -13 -10 -10
-5 3 -10 -1 -10 -9 0 -27 18 -18 29 15 6 18 11 33 11 34 0 9 -30 -2 -34 -12z"/>
<path d="M4580 3239 c0 -5 5 -7 10 -4 6 3 10 8 10 11 0 2 -4 4 -10 4 -5 0 -10
-5 -10 -11z"/>
<path d="M3603 3225 c-3 -9 -3 -19 1 -22 3 -4 6 1 6 11 0 10 5 14 12 10 7 -4
8 -3 4 4 -10 16 -15 15 -23 -3z"/>
<path d="M3120 3198 c1 -31 1 -32 15 -14 19 25 19 46 0 46 -10 0 -15 -10 -15
-32z"/>
<path d="M4622 3205 c0 -16 2 -22 5 -12 2 9 2 23 0 30 -3 6 -5 -1 -5 -18z"/>
<path d="M3577 3163 c-11 -13 -29 -28 -40 -33 -21 -8 -21 -9 -2 -10 l20 -1
-20 -9 c-19 -8 -19 -9 2 -9 12 -1 25 4 28 9 3 6 1 10 -6 10 -7 0 0 13 16 30
16 16 27 32 24 34 -2 2 -12 -7 -22 -21z"/>
<path d="M4364 3119 c-3 -6 8 -26 26 -44 19 -20 30 -40 27 -49 -3 -8 1 -17 9
-20 9 -3 12 -1 9 4 -3 6 -1 10 4 10 23 0 10 48 -22 78 -36 35 -42 37 -53 21z"/>
<path d="M3061 3101 c-25 -16 8 -22 36 -7 l28 15 -25 0 c-14 1 -31 -3 -39 -8z"/>
<path d="M3200 3101 c0 -5 7 -12 16 -15 14 -5 15 -4 4 9 -14 17 -20 19 -20 6z"/>
<path d="M3730 3071 c0 -10 24 -21 47 -21 13 0 13 3 3 15 -13 16 -50 21 -50 6z"/>
<path d="M3061 3054 c0 -11 3 -14 6 -6 3 7 2 16 -1 19 -3 4 -6 -2 -5 -13z"/>
<path d="M3625 3060 c-9 -15 -1 -23 21 -18 15 3 16 4 1 16 -11 9 -17 10 -22 2z"/>
<path d="M4345 3060 c-3 -5 -4 -10 -1 -10 3 0 -2 -12 -10 -27 -14 -28 -13 -28
19 -33 17 -3 47 -13 65 -23 19 -10 43 -20 55 -23 11 -2 33 -15 48 -30 15 -14
29 -21 33 -16 9 14 -33 47 -111 86 -39 19 -74 40 -78 46 -9 14 8 13 24 -2 10
-11 11 -9 5 7 -12 31 -37 44 -49 25z"/>
<path d="M3280 3046 c0 -2 8 -10 18 -17 15 -13 16 -12 3 4 -13 16 -21 21 -21
13z"/>
<path d="M3626 3015 c-3 -8 -1 -15 4 -15 6 0 10 7 10 15 0 8 -2 15 -4 15 -2 0
-6 -7 -10 -15z"/>
<path d="M3335 2982 c30 -57 35 -65 35 -52 0 8 -10 26 -21 40 -11 14 -18 19
-14 12z"/>
<path d="M4530 2956 c0 -2 8 -10 18 -17 15 -13 16 -12 3 4 -13 16 -21 21 -21
13z"/>
<path d="M6050 2923 c0 -12 5 -25 11 -28 19 -12 22 3 5 27 l-16 22 0 -21z"/>
<path d="M3633 2919 c-17 -7 -73 -62 -73 -72 0 -3 18 -12 39 -21 35 -14 43
-14 68 -1 19 10 22 15 11 15 -10 0 -18 5 -18 10 0 6 17 10 38 10 20 -1 51 1
67 4 17 3 56 7 89 10 51 5 87 14 60 17 -24 2 -52 8 -80 17 -22 7 -35 6 -49 -4
-16 -12 -22 -12 -39 0 -25 16 -88 25 -113 15z m44 -15 c-3 -3 -12 -4 -19 -1
-8 3 -5 6 6 6 11 1 17 -2 13 -5z"/>
<path d="M4284 2864 c-17 -44 -12 -72 7 -44 7 10 8 -10 3 -62 -5 -68 -4 -78
10 -78 9 0 16 5 16 10 0 6 -4 10 -9 10 -10 0 20 94 33 108 4 4 15 -2 23 -13
16 -20 16 -20 8 0 -12 36 -14 54 -5 60 19 12 -11 50 -40 52 -25 2 -31 -3 -46
-43z m62 10 c-3 -9 -6 -18 -6 -20 0 -3 -4 -3 -10 1 -11 7 -2 35 12 35 6 0 7
-7 4 -16z"/>
<path d="M3343 2868 c-44 -46 -53 -77 -51 -176 l1 -87 7 102 c6 102 9 110 59
166 35 38 22 34 -16 -5z"/>
<path d="M4388 2856 c-10 -7 -15 -16 -11 -19 11 -12 21 -7 26 13 3 11 4 20 4
20 -1 0 -10 -7 -19 -14z"/>
<path d="M4602 2765 c0 -16 2 -22 5 -12 2 9 2 23 0 30 -3 6 -5 -1 -5 -18z"/>
<path d="M6135 2740 c3 -5 10 -10 16 -10 5 0 9 5 9 10 0 6 -7 10 -16 10 -8 0
-12 -4 -9 -10z"/>
<path d="M4586 2704 c-4 -14 -5 -28 -3 -31 3 -2 8 8 11 23 4 14 5 28 3 31 -3
2 -8 -8 -11 -23z"/>
<path d="M6145 2660 c3 -5 8 -10 11 -10 2 0 4 5 4 10 0 6 -5 10 -11 10 -5 0
-7 -4 -4 -10z"/>
<path d="M4090 2653 c-8 -3 -34 -13 -57 -24 -23 -10 -71 -28 -105 -40 -35 -12
-70 -28 -79 -35 -8 -8 -21 -14 -28 -14 -7 0 -22 -5 -33 -11 -19 -10 -19 -12
12 -31 40 -24 119 -23 137 2 6 9 31 29 55 45 116 79 163 130 98 108z"/>
<path d="M4542 2581 c-18 -43 -51 -107 -74 -142 -52 -82 -229 -302 -236 -295
-2 3 0 11 5 18 6 7 43 54 83 103 39 50 76 99 82 110 16 30 0 12 -91 -103 -45
-56 -92 -107 -104 -112 -23 -10 -117 -29 -177 -37 -26 -3 -31 -2 -20 6 20 14
4 14 -22 0 -12 -6 -18 -7 -14 -1 9 14 -37 24 -126 27 -78 3 -102 10 -93 24 2
5 -5 17 -17 27 -21 19 -21 19 -16 -9 6 -33 -14 -48 -55 -40 -38 7 -34 20 6 15
41 -6 33 2 -19 20 -37 13 -44 13 -75 -4 -21 -12 -48 -18 -70 -16 -35 3 -36 2
-28 -21 7 -17 5 -28 -6 -41 -20 -22 -19 -36 3 -68 10 -15 24 -40 32 -57 25
-49 142 -166 190 -189 39 -18 45 -26 45 -51 0 -26 -4 -30 -28 -31 -15 -1 -30
-4 -34 -7 -3 -4 -13 -1 -22 5 -9 7 -13 8 -8 3 9 -10 -90 -38 -104 -29 -5 3 -9
-8 -9 -25 0 -18 7 -34 18 -40 9 -6 13 -11 8 -11 -5 0 -3 -7 5 -16 10 -12 10
-17 0 -23 -17 -11 -16 -20 6 -36 13 -10 20 -10 25 -2 14 23 18 -1 5 -32 -7
-17 -16 -29 -19 -25 -4 3 -4 -4 -1 -15 6 -25 -21 -61 -46 -61 -12 -1 -11 -3 4
-12 11 -6 22 -12 24 -14 7 -6 -123 -143 -131 -138 -5 3 -7 0 -6 -8 2 -7 -3
-12 -10 -10 -8 1 -11 -1 -8 -6 3 -5 -18 -40 -47 -79 -28 -38 -65 -96 -81 -130
-21 -45 -33 -60 -45 -56 -10 3 -12 2 -4 -4 8 -6 5 -28 -13 -82 -13 -40 -24
-82 -24 -92 0 -10 -4 -21 -10 -24 -5 -3 -10 0 -10 8 0 8 -7 18 -16 21 -24 9
-28 7 -15 -7 6 -8 7 -18 3 -22 -4 -5 -1 -5 7 0 11 6 13 3 9 -13 -4 -13 -1 -22
5 -22 8 0 7 -4 -1 -12 -9 -9 -15 -9 -24 0 -17 17 -28 15 -21 -5 4 -11 3 -14
-5 -9 -7 4 -23 -5 -38 -21 l-26 -28 33 -6 c32 -6 32 -6 6 -8 -46 -2 -64 -17
-71 -60 -4 -26 -13 -44 -27 -51 -13 -8 -18 -18 -15 -28 6 -16 5 -16 -7 0 -12
15 -17 12 -50 -32 -21 -28 -43 -50 -50 -50 -14 0 -71 -79 -63 -87 2 -3 14 1
26 7 30 16 46 8 26 -13 -12 -11 -13 -17 -5 -17 7 0 2 -11 -11 -25 -26 -27 -53
-34 -44 -11 4 10 -1 14 -15 13 -12 -1 -21 -4 -21 -8 0 -4 -9 -5 -20 -2 -12 3
-20 0 -20 -6 0 -7 -4 -10 -9 -6 -5 3 -12 1 -16 -5 -11 -17 -25 -11 -25 11 0
16 4 20 18 14 12 -4 14 -3 6 5 -20 20 -42 1 -38 -33 3 -24 1 -28 -8 -19 -9 9
-15 9 -27 -2 -9 -7 -27 -17 -40 -21 -21 -7 -23 -5 -18 16 6 23 5 23 -8 5 -16
-21 -11 -36 11 -36 14 0 14 -2 0 -15 -17 -17 -30 -20 -21 -4 4 6 -1 17 -11 24
-11 9 -14 14 -6 15 6 0 12 5 12 11 0 5 -4 7 -10 4 -9 -6 -14 11 -13 44 1 10
-2 10 -10 2 -7 -7 -12 -24 -13 -39 -3 -76 -6 -106 -11 -94 -2 6 -9 12 -14 12
-6 0 -7 -5 -4 -10 3 -6 -1 -10 -10 -10 -9 0 -13 5 -10 10 10 16 -6 12 -26 -6
-17 -15 -21 -15 -55 1 -20 9 -39 26 -41 36 -3 10 -13 19 -22 20 -10 0 -11 2
-4 6 18 7 -1 39 -27 46 -17 4 -20 0 -20 -26 l0 -32 -19 24 -18 24 -26 -24
c-25 -24 -25 -24 -14 -111 l11 -88 1440 1 c793 1 1433 3 1424 6 -21 5 -23 23
-5 42 10 11 9 12 -2 6 -11 -6 -13 -4 -8 7 3 9 -1 24 -9 35 -14 17 -14 15 -9
-15 8 -38 -10 -44 -19 -7 -6 25 -26 35 -26 14 0 -8 -5 -7 -16 2 -13 10 -17 10
-25 -2 -5 -8 -9 -9 -9 -3 0 5 6 16 12 22 21 21 -28 9 -52 -13 -17 -15 -20 -16
-20 -3 0 9 -7 18 -15 22 -8 3 -15 1 -15 -5 0 -6 -5 -7 -10 -4 -6 4 -8 11 -5
16 3 5 -1 6 -9 3 -9 -3 -16 -1 -16 6 0 6 -4 9 -9 5 -6 -3 -15 3 -20 12 -9 14
-10 11 -6 -17 4 -24 2 -30 -4 -21 -8 12 -13 12 -36 -3 -14 -9 -32 -15 -38 -12
-7 2 -4 5 6 5 9 1 17 6 17 12 0 5 -4 8 -9 5 -5 -3 -11 1 -15 9 -3 8 -12 12
-21 9 -8 -3 -15 -1 -15 4 0 6 -13 10 -29 10 -23 -1 -50 16 -112 66 -82 67 -83
67 -95 44 -16 -29 -11 -35 100 -113 85 -60 99 -75 71 -75 -8 0 -15 5 -15 11 0
6 -7 3 -16 -5 -20 -21 -28 -20 -20 2 4 10 -1 8 -13 -7 l-19 -25 -35 37 c-19
20 -41 37 -50 37 -9 0 -19 9 -22 20 -7 22 -30 27 -41 9 -3 -6 -18 -9 -32 -6
-24 5 -25 4 -9 -8 24 -17 21 -28 -4 -20 -15 5 -19 4 -15 -4 4 -6 5 -11 3 -11
-3 0 -24 26 -48 58 -53 70 -65 83 -51 56 10 -19 9 -21 -13 -16 -15 2 -25 0
-25 -7 0 -6 -5 -11 -11 -11 -5 0 -7 6 -3 13 6 9 5 9 -8 -1 -12 -10 -18 -9 -28
3 -10 12 -9 15 5 15 14 0 15 3 5 15 -16 19 -3 19 33 1 25 -14 40 -5 16 10 -8
5 -8 9 1 14 9 6 -7 37 -58 113 -38 58 -73 103 -76 100 -3 -4 0 -13 8 -22 12
-14 12 -18 0 -29 -12 -11 -14 -9 -15 10 0 13 -3 17 -6 11 -7 -19 -20 -16 -26
7 -7 29 3 60 20 60 8 0 11 5 8 10 -3 6 0 13 8 16 8 3 28 32 43 65 16 32 32 59
36 59 4 0 4 7 1 17 -5 12 -3 14 7 8 9 -5 11 -4 6 4 -5 7 3 29 18 51 14 22 26
42 26 44 0 3 16 32 35 65 21 36 35 72 35 93 0 22 -3 28 -9 20 -4 -8 -12 -13
-17 -12 -5 1 -10 -4 -13 -11 -2 -7 1 -9 9 -4 9 5 11 4 6 -3 -8 -13 -39 -1 -51
18 -4 7 -13 7 -26 0 -18 -10 -18 -12 -2 -38 10 -15 22 -30 27 -33 17 -13 -3
-39 -29 -39 -15 0 -24 -4 -20 -10 3 -5 1 -10 -5 -10 -6 0 -29 -12 -51 -27 -32
-21 -42 -24 -52 -13 -9 10 -9 11 1 6 6 -4 26 3 43 15 28 20 31 26 26 60 -4 31
-1 41 17 54 19 14 18 14 -12 0 -18 -9 -42 -25 -53 -36 -10 -10 -19 -15 -19
-10 0 5 -8 8 -17 7 -10 -2 -21 2 -25 8 -12 18 -9 26 7 20 15 -6 20 14 16 58
-2 14 4 16 31 12 23 -3 42 1 63 15 17 12 27 21 23 21 -4 0 4 11 18 25 14 14
29 25 33 25 5 0 14 7 21 15 7 9 15 13 18 10 8 -7 31 28 32 48 0 10 20 56 45
104 25 47 43 88 41 90 -3 3 -11 -8 -20 -24 -8 -16 -35 -40 -60 -54 -25 -13
-46 -27 -46 -31 0 -5 -6 -8 -14 -8 -8 0 -27 -5 -43 -11 -22 -8 -24 -12 -13
-19 8 -6 11 -10 5 -10 -5 0 0 -7 12 -15 30 -21 19 -50 -32 -79 -24 -14 -54
-39 -68 -56 -56 -66 -81 -18 -46 87 12 37 31 87 41 110 l19 43 25 -27 26 -28
-21 29 c-12 16 -21 40 -21 55 0 15 -14 40 -30 59 l-30 32 -33 -18 c-30 -16
-33 -21 -25 -42 5 -14 16 -32 24 -41 12 -14 9 -26 -29 -105 -24 -49 -54 -115
-67 -146 -13 -31 -27 -56 -31 -55 -4 1 -15 -6 -26 -16 -10 -9 -29 -27 -43 -38
l-25 -21 28 17 28 16 -15 -24 c-9 -13 -13 -27 -9 -31 5 -4 1 -6 -7 -4 -12 2
-15 -8 -15 -52 0 -57 -10 -76 -32 -58 -9 7 -13 7 -13 0 0 -5 -9 -8 -20 -5 -11
3 -20 0 -20 -6 0 -6 -6 -11 -14 -11 -8 0 -17 -6 -19 -12 -4 -10 -8 -10 -15 1
-7 9 -11 10 -13 2 -6 -17 -39 -2 -40 18 0 13 -2 13 -6 1 -10 -25 -26 -30 -40
-12 -11 16 -12 16 -13 0 0 -14 -4 -14 -25 -5 -14 7 -25 16 -25 21 0 5 -6 4
-12 -2 -7 -6 -29 -9 -48 -7 -39 3 -42 14 -28 100 4 22 4 32 2 23 -3 -10 -11
-15 -20 -11 -8 3 -14 0 -14 -7 0 -6 4 -9 9 -6 6 4 6 -5 2 -21 -5 -16 -14 -27
-20 -25 -8 2 -10 -4 -6 -17 6 -19 -10 -39 -22 -27 -11 11 31 127 45 121 6 -2
12 3 12 11 0 9 -5 13 -12 9 -7 -4 -6 -1 2 7 9 7 14 26 12 43 -2 23 0 27 7 15
9 -12 11 -11 11 8 0 12 4 22 8 22 4 0 8 9 9 20 2 19 41 82 56 88 4 2 7 13 7
23 0 11 5 17 10 14 6 -3 10 2 10 12 0 10 46 68 101 128 161 175 199 235 263
415 33 93 47 112 85 114 16 1 33 5 38 9 4 5 -1 5 -12 2 -16 -6 -17 -5 -5 4 8
6 21 11 28 11 7 0 27 16 44 35 24 29 33 33 45 24 10 -9 11 -14 2 -19 -6 -4 22
-13 62 -19 41 -7 96 -16 124 -21 44 -7 47 -6 30 6 -10 8 -26 14 -34 14 -10 0
-5 8 13 19 66 43 90 138 54 209 -15 29 -15 32 -1 32 22 0 14 6 -21 14 -27 7
-28 6 -15 -11 13 -16 12 -17 -3 -4 -29 22 -21 49 40 124 104 129 150 192 186
258 36 67 79 169 73 175 -2 2 -18 -32 -35 -75z m-913 -407 c-6 -8 -20 -14 -29
-14 -10 0 -20 -4 -22 -8 -1 -5 -14 -5 -28 -1 l-25 7 28 1 c15 1 35 10 44 20 9
11 22 17 30 14 10 -4 11 -9 2 -19z m91 -64 c91 -5 204 -10 251 -11 l87 -3 -16
-33 c-8 -17 -18 -30 -22 -28 -3 2 -14 -7 -24 -20 -10 -14 -24 -31 -30 -40 -6
-8 -22 -16 -36 -18 -14 -2 -26 -9 -26 -15 -3 -26 -6 -26 -17 0 l-12 26 -12
-25 c-10 -20 -9 -24 2 -19 17 6 30 -25 14 -34 -6 -4 -9 -11 -8 -16 2 -5 -17
-13 -42 -17 -54 -10 -114 3 -153 34 -29 23 -98 121 -132 187 -18 36 -19 42 -5
42 9 0 90 -4 181 -10z m588 -108 c2 -12 -1 -22 -7 -22 -6 0 -10 3 -10 8 3 20
-2 32 -13 26 -7 -4 -8 -3 -4 5 11 18 31 8 34 -17z m-188 -57 c6 -16 17 -25 32
-25 32 0 44 -11 44 -37 0 -18 -6 -23 -29 -23 -15 0 -41 7 -57 15 -47 24 -67
79 -32 88 30 8 32 7 42 -18z m-280 -207 c-15 -40 -39 -105 -54 -143 -14 -39
-40 -87 -56 -105 -30 -34 -30 -34 5 25 19 33 44 89 55 125 28 91 61 170 70
170 5 0 -4 -33 -20 -72z m-124 -172 c-44 -88 -94 -152 -109 -137 -7 7 -5 16 6
29 9 10 14 23 10 27 -5 5 0 3 10 -4 15 -12 17 -12 11 4 -5 13 -4 16 4 11 8 -5
10 -2 6 8 -3 9 -1 16 6 16 6 0 8 5 5 10 -3 6 4 24 16 42 13 17 17 28 10 24
-20 -13 7 35 33 57 19 17 21 18 24 2 2 -10 -12 -49 -32 -89z m193 -525 c-18
-39 -34 -69 -37 -67 -2 3 11 37 28 76 18 38 35 69 37 67 2 -2 -11 -36 -28 -76z
m-98 -158 c-11 -21 -20 -35 -21 -31 0 12 33 78 38 74 2 -2 -6 -21 -17 -43z
m135 -146 c4 -4 2 -7 -4 -7 -5 0 -17 -3 -26 -6 -10 -4 -16 -1 -16 8 0 15 33
18 46 5z m79 3 c3 -6 -1 -7 -9 -4 -18 7 -21 14 -7 14 6 0 13 -4 16 -10z m-329
-75 c-11 -8 -22 -12 -25 -9 -6 6 19 24 34 24 6 -1 1 -7 -9 -15z m-44 -37 c-7
-7 -12 -8 -12 -2 0 14 12 26 19 19 2 -3 -1 -11 -7 -17z m32 -23 c-24 -36 -49
-48 -74 -35 -25 13 -27 42 -2 39 29 -3 38 0 63 22 29 25 37 10 13 -26z m-161
10 c1 -6 -10 -11 -26 -11 l-27 -1 27 4 c21 4 23 7 12 15 -10 7 -10 9 -1 6 8
-2 14 -8 15 -13z m-178 -14 c-34 -8 -29 -11 65 -31 30 -7 68 -16 83 -21 15 -5
87 -11 158 -15 110 -6 131 -10 139 -25 17 -31 11 -66 -12 -81 -28 -18 -87 -21
-106 -6 -8 7 -16 8 -20 2 -24 -32 -125 -47 -150 -22 -7 7 -29 11 -48 9 -24 -2
-34 1 -30 8 8 12 -22 15 -48 5 -25 -10 -19 -22 15 -29 41 -9 109 -73 109 -102
0 -17 -10 -27 -35 -38 -36 -14 -90 -11 -101 6 -3 5 -30 9 -60 9 -41 0 -54 -4
-54 -15 0 -8 -4 -15 -9 -15 -5 0 -11 7 -15 15 -7 20 -26 19 -26 -1 0 -13 -3
-14 -14 -5 -11 9 -13 6 -10 -18 2 -19 -2 -31 -12 -35 -25 -10 -116 45 -101 61
4 3 -3 23 -13 44 -27 52 -25 98 6 144 33 50 57 69 129 107 70 36 130 57 165
56 22 0 22 -1 -5 -7z m-343 -186 c-5 -18 -11 -25 -15 -18 -4 7 -2 21 5 32 16
26 19 22 10 -14z m998 -30 c0 -7 -6 -15 -12 -18 -7 -2 -5 -3 5 -2 19 3 25 -29
7 -40 -5 -3 -10 -1 -10 5 0 6 -8 10 -17 8 -14 -2 -17 3 -15 22 7 44 42 65 42
25z m20 10 c0 -8 -2 -15 -4 -15 -2 0 -6 7 -10 15 -3 8 -1 15 4 15 6 0 10 -7
10 -15z m-1011 -145 c0 -8 -9 10 -19 40 -12 31 -17 63 -13 75 5 15 10 5 19
-40 7 -33 13 -67 13 -75z m1051 114 c0 -2 -9 -4 -21 -4 -11 0 -18 4 -14 10 5
8 35 3 35 -6z m-342 -23 c16 -9 -5 -21 -48 -28 l-25 -3 25 20 c29 22 30 23 48
11z m347 -11 c3 -5 3 -10 -2 -11 -4 0 -18 -2 -30 -5 -22 -4 -30 6 -16 19 10
10 41 8 48 -3z m-1129 -41 c3 -5 0 -9 -7 -9 -8 0 -8 -4 1 -15 10 -12 9 -16 -5
-21 -10 -4 -21 -1 -25 7 -7 11 -13 10 -29 -5 -11 -10 -18 -22 -16 -27 3 -4 0
-11 -6 -15 -6 -3 -15 0 -20 7 -6 10 1 21 22 38 17 13 28 29 25 36 -2 7 -3 15
0 18 7 7 54 -4 60 -14z m1107 -18 c18 -11 25 -21 18 -25 -6 -4 -11 -3 -11 2 0
5 -15 17 -32 26 -18 8 -26 16 -18 16 8 0 28 -9 43 -19z m-6 -36 c2 -12 0 -14
-3 -6 -5 10 -8 10 -14 1 -5 -8 -9 -5 -13 10 -4 16 -1 20 11 18 9 -2 18 -12 19
-23z m-1137 -19 c-5 -5 -16 -6 -25 -2 -14 5 -15 9 -5 21 9 11 15 12 25 2 7 -7
10 -16 5 -21z m1134 -27 c-8 -14 -24 -10 -24 6 0 9 6 12 15 9 8 -4 12 -10 9
-15z m44 -21 c-5 -15 -23 -11 -26 6 -2 11 2 14 13 10 9 -4 14 -11 13 -16z
m387 -96 c-6 -6 -34 11 -39 24 -4 11 0 10 18 -3 13 -10 23 -19 21 -21z"/>
<path d="M3695 2068 c4 -13 12 -27 17 -33 6 -6 6 -3 2 10 -6 16 -1 13 24 -10
34 -32 39 -40 20 -30 -7 4 -6 1 3 -7 9 -7 14 -20 12 -28 -3 -10 0 -9 7 3 6 9
8 22 5 27 -3 5 0 7 9 4 11 -4 13 0 10 18 -2 13 -2 17 2 11 9 -20 23 -15 21 6
-1 12 -6 17 -16 13 -9 -3 -12 -1 -7 6 9 15 -33 32 -80 32 -32 0 -35 -2 -29
-22z"/>
<path d="M3830 1970 c6 -11 12 -20 14 -20 2 0 2 9 -1 20 -3 11 -9 20 -15 20
-5 0 -4 -9 2 -20z"/>
<path d="M3311 324 c0 -11 3 -14 6 -6 3 7 2 16 -1 19 -3 4 -6 -2 -5 -13z"/>
<path d="M2813 2595 c-13 -14 -17 -35 -8 -35 3 0 14 9 25 20 11 11 20 22 20
25 0 10 -26 4 -37 -10z"/>
<path d="M3302 2565 c0 -16 2 -22 5 -12 2 9 2 23 0 30 -3 6 -5 -1 -5 -18z"/>
<path d="M2805 2520 c-4 -6 5 -10 20 -10 15 0 24 4 20 10 -3 6 -12 10 -20 10
-8 0 -17 -4 -20 -10z"/>
<path d="M2801 2474 c0 -11 3 -14 6 -6 3 7 2 16 -1 19 -3 4 -6 -2 -5 -13z"/>
<path d="M3321 2474 c0 -11 3 -14 6 -6 3 7 2 16 -1 19 -3 4 -6 -2 -5 -13z"/>
<path d="M2784 2239 c-3 -6 -1 -16 5 -22 8 -8 11 -5 11 11 0 24 -5 28 -16 11z"/>
<path d="M6231 2174 c0 -11 3 -14 6 -6 3 7 2 16 -1 19 -3 4 -6 -2 -5 -13z"/>
<path d="M3218 2173 c7 -3 16 -2 19 1 4 3 -2 6 -13 5 -11 0 -14 -3 -6 -6z"/>
<path d="M3168 2163 c7 -3 16 -2 19 1 4 3 -2 6 -13 5 -11 0 -14 -3 -6 -6z"/>
<path d="M3370 2158 c0 -5 -8 -9 -17 -9 -22 -2 53 -18 85 -18 19 -1 21 1 10
18 -8 13 -22 19 -45 18 -18 -1 -33 -5 -33 -9z"/>
<path d="M3063 2143 c9 -2 23 -2 30 0 6 3 -1 5 -18 5 -16 0 -22 -2 -12 -5z"/>
<path d="M3107 2109 c-9 -6 -17 -14 -17 -19 0 -17 27 -11 34 6 8 22 5 25 -17
13z"/>
<path d="M4358 2113 c7 -3 16 -2 19 1 4 3 -2 6 -13 5 -11 0 -14 -3 -6 -6z"/>
<path d="M2904 2093 c11 -20 -24 -72 -45 -68 -10 2 -22 -2 -25 -8 -4 -7 -4 -9
1 -5 4 4 14 3 21 -3 19 -16 73 67 54 84 -10 9 -11 9 -6 0z"/>
<path d="M2949 2077 c-19 -14 -43 -57 -36 -64 3 -2 17 12 32 32 29 37 31 51 4
32z"/>
<path d="M6238 2005 c2 -14 8 -25 13 -25 14 0 11 26 -5 39 -11 9 -12 6 -8 -14z"/>
<path d="M2803 1987 c-1 -30 -1 -31 8 -8 5 14 6 28 2 32 -4 4 -9 -6 -10 -24z"/>
<path d="M2923 1998 c-25 -29 -36 -59 -20 -55 6 1 14 -14 18 -33 3 -19 7 -26
8 -15 1 11 4 31 8 44 5 20 3 23 -10 18 -11 -4 -17 -1 -17 8 0 20 21 30 30 15
5 -8 8 -3 7 13 -1 15 -2 27 -3 27 0 0 -10 -10 -21 -22z"/>
<path d="M2861 1963 c-19 -38 -45 -151 -57 -251 -9 -68 -24 -77 -25 -15 l0 48
-15 -45 c-8 -25 -12 -54 -10 -65 2 -11 0 -42 -4 -70 l-7 -50 -3 70 c-2 39 -4
78 -4 87 1 33 -13 8 -30 -56 -20 -72 -25 -161 -12 -190 7 -14 6 -17 -2 -12 -8
5 -12 -1 -12 -16 -3 -137 -15 -189 -41 -172 -10 6 -22 -71 -15 -93 3 -11 -3
-36 -14 -58 -11 -22 -20 -40 -20 -41 0 -2 12 -5 28 -7 17 -2 10 -5 -19 -6 -44
-1 -47 -3 -51 -31 -3 -17 0 -34 5 -37 6 -4 0 -10 -12 -15 -12 -4 -19 -12 -16
-18 3 -5 2 -10 -4 -10 -5 0 -11 5 -13 11 -3 8 -15 9 -36 4 -33 -7 -40 -33 -8
-27 9 2 16 -2 16 -8 0 -5 5 -10 11 -10 5 0 7 5 4 10 -3 6 1 10 9 10 8 0 18 -4
21 -10 3 -5 15 -10 27 -10 17 0 19 -2 7 -16 -11 -13 -9 -14 16 -8 l29 7 -30
-39 c-42 -55 -65 -106 -53 -120 5 -6 6 -19 2 -29 -5 -16 -2 -17 28 -13 28 5
38 2 48 -14 7 -11 10 -23 7 -26 -3 -3 -6 0 -6 6 0 7 -4 12 -9 12 -5 0 -7 -9
-4 -20 6 -23 56 -53 68 -42 5 4 5 1 1 -5 -10 -18 -5 -17 61 12 37 17 70 25 93
22 34 -3 33 -4 -7 -5 -23 -1 -45 -7 -48 -12 -4 -6 -21 -17 -38 -24 l-32 -14
40 -2 c22 -1 45 -3 50 -5 6 -1 19 -3 29 -3 20 -2 20 -2 0 -18 -17 -14 -16 -14
11 0 17 8 71 34 120 57 108 51 104 48 84 62 -9 7 -24 26 -33 42 -10 17 -15 23
-12 13 2 -9 -1 -24 -8 -34 -10 -14 -21 -16 -54 -10 -31 4 -42 3 -42 -6 0 -7
-8 3 -17 22 -54 117 -57 121 -66 105 -7 -14 -11 -12 -28 9 -10 13 -19 28 -19
33 0 4 5 1 11 -7 7 -11 9 -7 8 20 -3 56 0 70 14 64 8 -3 14 2 14 11 0 10 -6
13 -17 10 -29 -9 -17 150 16 217 8 15 17 51 20 80 3 29 16 78 29 108 35 87 56
188 35 175 -5 -3 -10 -2 -10 4 0 5 4 11 9 13 5 2 12 17 16 33 5 23 4 27 -4 15
-12 -16 -10 3 9 78 5 19 7 39 4 45 -5 14 10 124 21 150 4 10 3 17 -4 17 -6 0
-11 -9 -11 -20 0 -11 -4 -20 -9 -20 -7 0 -19 -47 -25 -107 -1 -13 -6 -26 -9
-30 -4 -3 -7 -19 -7 -34 0 -15 -4 -30 -9 -34 -5 -3 -12 -18 -16 -35 -3 -16
-15 -47 -25 -68 -11 -22 -24 -68 -29 -103 -15 -97 -42 -420 -35 -430 3 -5 0
-9 -5 -9 -6 0 -11 9 -11 21 0 15 -5 19 -15 15 -8 -3 -15 -1 -15 5 0 6 -6 7
-12 4 -7 -4 -4 1 6 9 11 9 26 16 33 16 7 0 13 5 13 10 0 6 -9 10 -20 10 -23 0
-22 22 1 32 19 7 32 104 17 124 -4 6 -5 14 -1 17 3 4 1 7 -4 7 -6 0 -10 8 -8
18 2 9 4 22 5 27 1 6 5 -1 9 -15 6 -19 9 -8 15 45 4 39 14 95 22 126 8 31 14
71 14 88 0 17 4 31 9 31 5 0 7 9 4 19 -3 11 2 41 10 68 8 26 23 82 32 123 9
41 24 81 33 89 11 9 13 15 6 18 -7 2 -9 14 -6 25 5 21 6 21 12 3 4 -11 7 8 6
43 0 34 -2 62 -3 62 -2 0 -11 -17 -22 -37z m-146 -813 c-3 -5 -13 -6 -23 -3
-15 6 -15 5 -3 -11 13 -16 13 -17 0 -14 -7 1 -15 -1 -16 -6 -2 -11 -33 -30
-39 -23 -9 8 8 37 22 37 8 0 14 7 14 15 0 9 10 15 26 15 14 0 23 -4 19 -10z
m22 -272 c-3 -8 -6 -5 -6 6 -1 11 2 17 5 13 3 -3 4 -12 1 -19z m0 -40 c-3 -8
-6 -5 -6 6 -1 11 2 17 5 13 3 -3 4 -12 1 -19z"/>
<path d="M4010 1740 c-54 -4 -61 -7 -40 -14 14 -5 37 -9 51 -8 22 2 26 -2 25
-20 -1 -14 4 -22 12 -20 10 2 10 -2 0 -18 -7 -11 -16 -20 -20 -20 -5 0 -8 -5
-8 -11 0 -6 15 -1 34 10 42 26 58 26 81 1 25 -28 32 -25 43 18 l10 37 1 -32
c1 -17 6 -35 11 -38 6 -4 8 -11 4 -16 -3 -5 -10 -6 -16 -3 -21 13 12 -35 43
-60 35 -30 45 -32 53 -10 7 17 -27 90 -45 96 -6 2 -12 16 -12 31 -2 29 -11 35
-21 15 -4 -7 -4 -3 -2 8 3 19 -2 23 -43 28 -25 3 -57 12 -71 19 -16 7 -49 10
-90 7z m127 -62 c-3 -7 -5 -2 -5 12 0 14 2 19 5 13 2 -7 2 -19 0 -25z"/>
<path d="M4065 1520 c7 -12 -9 -19 -51 -24 -16 -2 -32 -4 -36 -5 -4 0 -12 -11
-19 -22 -11 -21 -11 -21 20 -3 l31 18 75 -37 c87 -43 119 -49 90 -17 -10 11
-22 17 -26 14 -5 -3 -9 -2 -9 3 0 4 -14 16 -30 25 -18 10 -30 25 -30 38 0 11
-5 20 -11 20 -5 0 -7 -5 -4 -10z"/>
<path d="M4707 1404 c-10 -13 -13 -24 -8 -24 10 0 36 39 29 45 -2 2 -11 -8
-21 -21z"/>
<path d="M4717 1349 c-84 -20 -107 -43 -186 -179 -24 -41 -61 -103 -83 -137
-34 -54 -38 -66 -32 -100 4 -21 20 -54 35 -74 16 -20 32 -45 36 -56 17 -43
160 -231 191 -252 19 -12 36 -20 38 -18 3 2 -7 12 -20 21 -28 18 -59 70 -49
80 4 3 -2 6 -13 7 -16 0 -15 2 5 10 14 5 31 7 38 4 8 -2 12 -1 9 4 -10 16 25
35 77 42 36 5 70 2 110 -9 56 -15 72 -28 114 -91 1 -2 16 -5 34 -7 29 -4 31
-2 25 22 -4 15 -14 33 -22 41 -8 8 -12 19 -9 24 4 5 2 9 -3 9 -5 0 -12 8 -15
19 -7 27 -95 35 -212 20 -63 -8 -99 -9 -105 -3 -7 7 0 9 20 8 17 -1 33 2 36 7
3 5 -12 10 -33 10 -33 2 -30 3 17 9 30 5 79 8 109 9 63 1 63 9 1 17 -24 3 -52
10 -62 15 -10 5 -23 7 -28 4 -6 -3 -10 -2 -10 4 0 5 6 11 13 14 10 4 10 7 0
18 -14 14 -17 30 -5 28 19 -3 25 2 12 11 -12 8 -11 10 8 10 20 0 21 3 12 20
-13 24 -6 40 18 41 11 0 12 3 5 6 -7 2 -13 9 -13 14 0 5 6 9 13 9 16 0 38 48
25 56 -5 3 -8 15 -5 25 3 11 1 19 -4 19 -4 0 -14 18 -20 40 -7 21 -15 38 -18
35 -4 -2 -7 14 -7 36 -1 21 2 39 6 39 4 0 10 15 13 33 3 17 9 47 13 65 6 29 4
32 -17 31 -13 -1 -41 -5 -62 -10z"/>
<path d="M3631 1296 c-10 -12 -9 -14 6 -11 10 2 22 4 26 4 10 1 -1 21 -12 21
-5 0 -14 -6 -20 -14z"/>
<path d="M3515 1181 c-3 -5 -1 -12 5 -16 5 -3 10 1 10 9 0 18 -6 21 -15 7z"/>
<path d="M4255 1103 c3 -16 9 -41 14 -58 7 -24 9 -26 10 -8 1 12 -4 34 -9 50
l-10 28 25 -28 c24 -27 25 -27 22 -5 -2 20 -29 47 -49 48 -3 0 -5 -12 -3 -27z"/>
<path d="M4350 1112 c0 -26 40 -86 50 -76 5 5 10 27 12 49 3 39 2 40 -30 42
-24 1 -32 -3 -32 -15z"/>
<path d="M2821 1104 c0 -11 3 -14 6 -6 3 7 2 16 -1 19 -3 4 -6 -2 -5 -13z"/>
<path d="M4320 1085 c0 -8 4 -15 10 -15 5 0 7 7 4 15 -4 8 -8 15 -10 15 -2 0
-4 -7 -4 -15z"/>
<path d="M4330 1053 c0 -13 29 -38 35 -31 3 3 -4 13 -15 23 -11 10 -20 13 -20
8z"/>
<path d="M4271 984 c0 -11 3 -14 6 -6 3 7 2 16 -1 19 -3 4 -6 -2 -5 -13z"/>
<path d="M5752 930 c0 -14 2 -19 5 -12 2 6 2 18 0 25 -3 6 -5 1 -5 -13z"/>
<path d="M2511 874 c0 -11 3 -14 6 -6 3 7 2 16 -1 19 -3 4 -6 -2 -5 -13z"/>
<path d="M4295 870 c3 -5 11 -10 16 -10 6 0 7 5 4 10 -3 6 -11 10 -16 10 -6 0
-7 -4 -4 -10z"/>
<path d="M4376 860 c3 -14 10 -29 15 -34 14 -16 10 6 -7 34 l-15 25 7 -25z"/>
<path d="M5253 785 c0 -22 2 -30 4 -17 2 12 2 30 0 40 -3 9 -5 -1 -4 -23z"/>
<path d="M4973 783 c9 -2 25 -2 35 0 9 3 1 5 -18 5 -19 0 -27 -2 -17 -5z"/>
<path d="M5103 773 c9 -2 23 -2 30 0 6 3 -1 5 -18 5 -16 0 -22 -2 -12 -5z"/>
<path d="M4406 710 c4 -36 20 -99 36 -140 37 -92 56 -117 28 -35 -19 53 -33
109 -45 170 -2 11 -8 31 -14 45 -9 20 -10 12 -5 -40z"/>
<path d="M4441 734 c-1 -23 6 -48 15 -60 8 -10 12 -13 9 -6 -4 7 -10 34 -15
60 l-8 47 -1 -41z"/>
<path d="M5160 763 c8 -3 27 -12 43 -20 15 -7 27 -9 27 -4 0 5 -14 14 -31 20
-32 11 -68 14 -39 4z"/>
<path d="M4491 745 c0 -11 5 -60 13 -108 10 -71 18 -93 39 -115 15 -16 27 -33
27 -39 0 -14 109 -153 120 -153 22 0 -60 202 -132 325 -70 117 -67 113 -67 90z"/>
<path d="M2860 705 c0 -5 5 -17 10 -25 5 -8 10 -10 10 -5 0 6 -5 17 -10 25 -5
8 -10 11 -10 5z"/>
<path d="M5468 673 c7 -3 16 -2 19 1 4 3 -2 6 -13 5 -11 0 -14 -3 -6 -6z"/>
<path d="M4167 649 c7 -7 15 -10 18 -7 3 3 -2 9 -12 12 -14 6 -15 5 -6 -5z"/>
<path d="M5251 644 c0 -11 3 -14 6 -6 3 7 2 16 -1 19 -3 4 -6 -2 -5 -13z"/>
<path d="M2978 575 c-6 -14 -15 -25 -20 -25 -5 0 -6 5 -3 10 9 15 -8 12 -31
-5 -18 -14 -18 -14 4 -10 24 4 28 -5 10 -23 -7 -7 -10 -12 -7 -12 3 0 25 20
49 45 32 32 39 45 27 45 -10 0 -23 -11 -29 -25z"/>
<path d="M5261 544 c0 -11 3 -14 6 -6 3 7 2 16 -1 19 -3 4 -6 -2 -5 -13z"/>
<path d="M5010 546 c0 -2 11 -6 25 -8 13 -3 22 -1 19 3 -5 9 -44 13 -44 5z"/>
<path d="M2590 495 c-7 -8 -16 -13 -20 -10 -4 3 -13 -2 -20 -10 -10 -12 -9
-15 3 -15 11 0 15 -6 11 -17 -5 -15 -4 -16 5 -3 17 21 42 70 37 70 -2 0 -9 -7
-16 -15z"/>
<path d="M4815 436 c78 -73 81 -75 120 -69 22 4 47 7 55 7 8 1 18 4 21 9 3 4
11 -4 19 -18 15 -29 33 -34 28 -7 -2 9 -10 16 -17 14 -7 -1 -11 5 -9 15 3 16
-6 18 -82 15 -74 -2 -83 0 -67 11 25 20 21 27 -15 28 -24 0 -28 2 -15 8 17 6
17 8 -2 25 -11 10 -18 23 -15 27 3 5 -19 9 -47 9 l-53 0 79 -74z"/>
<path d="M2880 481 c0 -7 -5 -9 -10 -6 -6 4 -9 1 -8 -6 2 -7 -3 -13 -9 -14 -7
0 -13 -4 -12 -10 1 -17 5 -16 29 10 13 14 20 28 17 32 -4 3 -7 1 -7 -6z"/>
<path d="M2796 405 c-20 -30 -21 -41 -2 -26 12 10 29 51 21 51 -1 0 -10 -11
-19 -25z"/>
<path d="M5199 421 c18 -12 -2 -23 -26 -14 -27 9 -14 0 39 -30 32 -17 50 -22
54 -15 4 6 2 8 -3 5 -6 -4 -16 0 -23 8 -7 8 -9 15 -5 15 5 0 0 9 -10 20 -10
11 -23 20 -29 20 -6 0 -5 -4 3 -9z m21 -21 c0 -5 -5 -10 -11 -10 -5 0 -7 5 -4
10 3 6 8 10 11 10 2 0 4 -4 4 -10z"/>
<path d="M2819 397 c-8 -12 -26 -37 -39 -54 -13 -18 -21 -35 -18 -39 3 -3 23
20 43 51 36 53 47 86 14 42z"/>
<path d="M5285 389 c-4 -6 -5 -12 -2 -15 2 -3 7 2 10 11 7 17 1 20 -8 4z"/>
<path d="M2710 345 c-7 -8 -9 -15 -6 -15 4 0 14 7 22 15 9 8 11 15 6 15 -5 0
-15 -7 -22 -15z"/>
<path d="M5275 349 c-4 -6 -5 -12 -2 -15 2 -3 7 2 10 11 7 17 1 20 -8 4z"/>
<path d="M2519 293 c-13 -16 -12 -17 4 -4 16 13 21 21 13 21 -2 0 -10 -8 -17
-17z"/>
<path d="M5250 280 c0 -5 5 -10 10 -10 6 0 10 5 10 10 0 6 -4 10 -10 10 -5 0
-10 -4 -10 -10z"/>
<path d="M2475 200 c-3 -11 -11 -20 -16 -20 -6 0 -7 6 -3 13 4 6 -2 3 -14 -7
-12 -11 -22 -24 -22 -30 0 -6 7 -2 15 8 9 11 15 14 15 7 0 -25 33 -6 36 22 3
32 -2 35 -11 7z"/>
<path d="M4714 152 c1 -30 27 -38 32 -10 1 11 -3 15 -14 11 -10 -4 -13 -2 -8
5 3 6 2 13 -2 16 -5 3 -9 -7 -8 -22z"/>
<path d="M2140 100 c0 -37 11 -70 21 -64 10 6 1 64 -12 79 -5 5 -9 -1 -9 -15z"/>
<path d="M5088 3 c6 -2 18 -2 25 0 6 3 1 5 -13 5 -14 0 -19 -2 -12 -5z"/>
</g>
</svg>
